<mxfile host="app.diagrams.net" agent="Mozilla/5.0 (Windows NT 10.0; Win64; x64) AppleWebKit/537.36 (KHTML, like Gecko) Chrome/130.0.0.0 Safari/537.36" version="24.8.4">
  <diagram name="Seite-1" id="ike7nHoUlxXeLE-UfbGu">
    <mxGraphModel dx="1195" dy="615" grid="1" gridSize="10" guides="1" tooltips="1" connect="1" arrows="1" fold="1" page="1" pageScale="1" pageWidth="827" pageHeight="1169" math="0" shadow="0">
      <root>
        <mxCell id="0" />
        <mxCell id="1" parent="0" />
        <mxCell id="6D4w20ENJh5MBXWvySD2-1" value="" style="rounded=0;whiteSpace=wrap;html=1;" vertex="1" parent="1">
          <mxGeometry x="120" y="80" width="680" height="360" as="geometry" />
        </mxCell>
        <mxCell id="6D4w20ENJh5MBXWvySD2-3" value="&lt;b style=&quot;font-size: 24px;&quot;&gt;MariaDB&lt;/b&gt;" style="rounded=1;whiteSpace=wrap;html=1;" vertex="1" parent="1">
          <mxGeometry x="170" y="140" width="140" height="100" as="geometry" />
        </mxCell>
        <mxCell id="6D4w20ENJh5MBXWvySD2-4" value="&lt;b style=&quot;font-size: 24px;&quot;&gt;Keycloak&lt;/b&gt;" style="rounded=1;whiteSpace=wrap;html=1;" vertex="1" parent="1">
          <mxGeometry x="170" y="280" width="140" height="100" as="geometry" />
        </mxCell>
        <mxCell id="6D4w20ENJh5MBXWvySD2-5" value="&lt;div&gt;&lt;span style=&quot;font-size: 24px;&quot;&gt;&lt;b&gt;Java Spring Boot&lt;/b&gt;&lt;/span&gt;&lt;/div&gt;&lt;div&gt;&lt;br&gt;&lt;/div&gt;&lt;div&gt;&lt;br&gt;&lt;/div&gt;&lt;div&gt;&lt;br&gt;&lt;/div&gt;&lt;div&gt;&lt;br&gt;&lt;/div&gt;&lt;div&gt;&lt;br&gt;&lt;/div&gt;&lt;div&gt;&lt;br&gt;&lt;/div&gt;&lt;div&gt;&lt;br&gt;&lt;/div&gt;&lt;div&gt;&lt;br&gt;&lt;/div&gt;&lt;div&gt;&lt;br&gt;&lt;/div&gt;&lt;div&gt;&lt;br&gt;&lt;/div&gt;&lt;div&gt;&amp;nbsp;&lt;/div&gt;" style="rounded=1;whiteSpace=wrap;html=1;" vertex="1" parent="1">
          <mxGeometry x="430" y="125" width="330" height="270" as="geometry" />
        </mxCell>
        <mxCell id="6D4w20ENJh5MBXWvySD2-6" value="" style="endArrow=none;html=1;rounded=0;exitX=0;exitY=0.5;exitDx=0;exitDy=0;entryX=1;entryY=0.5;entryDx=0;entryDy=0;" edge="1" parent="1" source="6D4w20ENJh5MBXWvySD2-5" target="6D4w20ENJh5MBXWvySD2-5">
          <mxGeometry width="50" height="50" relative="1" as="geometry">
            <mxPoint x="490" y="560" as="sourcePoint" />
            <mxPoint x="540" y="510" as="targetPoint" />
          </mxGeometry>
        </mxCell>
        <mxCell id="6D4w20ENJh5MBXWvySD2-7" value="" style="endArrow=none;html=1;rounded=0;entryX=0.5;entryY=1;entryDx=0;entryDy=0;" edge="1" parent="1" target="6D4w20ENJh5MBXWvySD2-5">
          <mxGeometry width="50" height="50" relative="1" as="geometry">
            <mxPoint x="595" y="260" as="sourcePoint" />
            <mxPoint x="630" y="340" as="targetPoint" />
          </mxGeometry>
        </mxCell>
        <mxCell id="6D4w20ENJh5MBXWvySD2-8" value="&lt;span style=&quot;font-size:11.0pt;font-family:&amp;quot;Arial&amp;quot;,sans-serif;&lt;br/&gt;mso-fareast-font-family:Arial;mso-fareast-theme-font:minor-latin;mso-bidi-font-family:&lt;br/&gt;&amp;quot;Times New Roman&amp;quot;;mso-bidi-theme-font:minor-bidi;mso-ansi-language:DE-AT;&lt;br/&gt;mso-fareast-language:EN-US;mso-bidi-language:AR-SA&quot;&gt;Thymeleaf&amp;nbsp;&lt;/span&gt;" style="text;html=1;align=center;verticalAlign=middle;whiteSpace=wrap;rounded=0;" vertex="1" parent="1">
          <mxGeometry x="650" y="320" width="60" height="30" as="geometry" />
        </mxCell>
        <mxCell id="6D4w20ENJh5MBXWvySD2-9" value="&lt;font style=&quot;font-size: 24px;&quot;&gt;&lt;b&gt;Jakata&lt;/b&gt;&lt;/font&gt;" style="text;html=1;align=center;verticalAlign=middle;whiteSpace=wrap;rounded=0;" vertex="1" parent="1">
          <mxGeometry x="490" y="315" width="60" height="30" as="geometry" />
        </mxCell>
        <mxCell id="6D4w20ENJh5MBXWvySD2-13" value="" style="endArrow=classic;html=1;rounded=0;entryX=1;entryY=0.33;entryDx=0;entryDy=0;entryPerimeter=0;exitX=-0.003;exitY=0.179;exitDx=0;exitDy=0;exitPerimeter=0;" edge="1" parent="1" source="6D4w20ENJh5MBXWvySD2-5" target="6D4w20ENJh5MBXWvySD2-3">
          <mxGeometry width="50" height="50" relative="1" as="geometry">
            <mxPoint x="390" y="570" as="sourcePoint" />
            <mxPoint x="440" y="520" as="targetPoint" />
          </mxGeometry>
        </mxCell>
        <mxCell id="6D4w20ENJh5MBXWvySD2-14" value="" style="endArrow=classic;html=1;rounded=0;exitX=1;exitY=0.75;exitDx=0;exitDy=0;entryX=-0.006;entryY=0.334;entryDx=0;entryDy=0;entryPerimeter=0;" edge="1" parent="1" source="6D4w20ENJh5MBXWvySD2-3" target="6D4w20ENJh5MBXWvySD2-5">
          <mxGeometry width="50" height="50" relative="1" as="geometry">
            <mxPoint x="220" y="560" as="sourcePoint" />
            <mxPoint x="270" y="510" as="targetPoint" />
          </mxGeometry>
        </mxCell>
        <mxCell id="6D4w20ENJh5MBXWvySD2-15" value="" style="endArrow=classic;html=1;rounded=0;exitX=0.989;exitY=0.737;exitDx=0;exitDy=0;exitPerimeter=0;entryX=-0.007;entryY=0.848;entryDx=0;entryDy=0;entryPerimeter=0;" edge="1" parent="1" source="6D4w20ENJh5MBXWvySD2-4" target="6D4w20ENJh5MBXWvySD2-5">
          <mxGeometry width="50" height="50" relative="1" as="geometry">
            <mxPoint x="340" y="380" as="sourcePoint" />
            <mxPoint x="390" y="330" as="targetPoint" />
          </mxGeometry>
        </mxCell>
        <mxCell id="6D4w20ENJh5MBXWvySD2-16" value="" style="endArrow=classic;html=1;rounded=0;entryX=1;entryY=0.25;entryDx=0;entryDy=0;exitX=-0.002;exitY=0.665;exitDx=0;exitDy=0;exitPerimeter=0;" edge="1" parent="1" source="6D4w20ENJh5MBXWvySD2-5" target="6D4w20ENJh5MBXWvySD2-4">
          <mxGeometry width="50" height="50" relative="1" as="geometry">
            <mxPoint x="350" y="350" as="sourcePoint" />
            <mxPoint x="400" y="300" as="targetPoint" />
          </mxGeometry>
        </mxCell>
        <mxCell id="6D4w20ENJh5MBXWvySD2-17" value="" style="endArrow=classic;html=1;rounded=0;exitX=0.75;exitY=1;exitDx=0;exitDy=0;" edge="1" parent="1" source="6D4w20ENJh5MBXWvySD2-5">
          <mxGeometry width="50" height="50" relative="1" as="geometry">
            <mxPoint x="610" y="540" as="sourcePoint" />
            <mxPoint x="680" y="470" as="targetPoint" />
          </mxGeometry>
        </mxCell>
        <mxCell id="6D4w20ENJh5MBXWvySD2-18" value="&lt;span style=&quot;text-wrap-mode: wrap;&quot;&gt;&lt;font style=&quot;font-size: 22px;&quot;&gt;Expose:8082&lt;/font&gt;&lt;/span&gt;" style="text;html=1;align=center;verticalAlign=middle;resizable=0;points=[];autosize=1;strokeColor=none;fillColor=none;" vertex="1" parent="1">
          <mxGeometry x="605" y="460" width="150" height="40" as="geometry" />
        </mxCell>
        <mxCell id="6D4w20ENJh5MBXWvySD2-19" value="&lt;font style=&quot;font-size: 15px;&quot;&gt;&lt;b&gt;Docker Envirionment&amp;nbsp;&lt;/b&gt;&lt;/font&gt;" style="text;html=1;align=center;verticalAlign=middle;whiteSpace=wrap;rounded=0;" vertex="1" parent="1">
          <mxGeometry x="180" y="90" width="130" height="30" as="geometry" />
        </mxCell>
        <mxCell id="6D4w20ENJh5MBXWvySD2-20" value="" style="endArrow=none;html=1;rounded=0;entryX=0.358;entryY=-0.007;entryDx=0;entryDy=0;entryPerimeter=0;exitX=0.354;exitY=0.995;exitDx=0;exitDy=0;exitPerimeter=0;" edge="1" parent="1" source="6D4w20ENJh5MBXWvySD2-1" target="6D4w20ENJh5MBXWvySD2-1">
          <mxGeometry width="50" height="50" relative="1" as="geometry">
            <mxPoint x="290" y="560" as="sourcePoint" />
            <mxPoint x="340" y="510" as="targetPoint" />
          </mxGeometry>
        </mxCell>
      </root>
    </mxGraphModel>
  </diagram>
</mxfile>
